<?xml version="1.0" encoding="UTF-8"?>
<svg id="Palette" xmlns="http://www.w3.org/2000/svg" viewBox="0 0 500 500">
  <defs>
    <style>
      .cls-1 {
        fill: #41ead4;
      }

      .cls-2 {
        fill: #fff;
      }

      .cls-3 {
        fill: #fcd34d;
      }
    </style>
  </defs>
  <path class="cls-3" d="M348.62,152.74c20.98,26.23,33.53,59.5,33.56,95.7,0,8.49-.69,16.82-2,24.93-11.86,72.97-75.14,128.69-151.46,128.74l-101.57.07v13.36s113.58-.09,113.58-.09c76.32-.05,139.6-55.78,151.45-128.74,1.32-8.11,2-16.44,2-24.92-.03-42.66-17.45-81.25-45.56-109.05Z"/>
  <g>
    <path class="cls-2" d="M382.19,248.43c0,8.49-.69,16.82-2,24.93-11.86,72.97-75.14,128.69-151.46,128.74l-101.57.07h-11.99s-.01-10.52-.01-10.52h11.99s92.46-.09,92.46-.09c76.32-.05,139.6-55.77,151.44-128.73,1.32-8.12,2-16.45,2-24.93-.02-33.24-10.61-64.01-28.58-89.14,1.41,1.3,2.8,2.62,4.16,3.97,20.98,26.23,33.53,59.5,33.56,95.7Z"/>
    <path class="cls-2" d="M348.62,152.74c-1.36-1.35-2.75-2.67-4.16-3.97-1.42-1.99-2.89-3.95-4.4-5.86,2.99,3.15,5.84,6.43,8.56,9.83Z"/>
  </g>
  <path class="cls-1" d="M344.46,148.77c-1.42-1.99-2.89-3.95-4.4-5.86-28.15-35.63-71.75-58.48-120.69-58.44l-113.56.06.2,307.14h9.14s11.99-.02,11.99-.02l92.46-.08c76.32-.05,139.6-55.77,151.44-128.73,1.32-8.12,2-16.45,2-24.93-.02-33.24-10.61-64.01-28.58-89.14ZM296.33,258.89h-51.12v51.12c0,9.83-7.96,17.78-17.78,17.78-4.13,0-7.92-1.41-10.93-3.76-2.37-1.85-4.26-4.29-5.44-7.09h0c-.9-2.14-1.4-4.47-1.4-6.93v-51.12h-51.12c-9.82,0-17.78-7.96-17.78-17.78,0-4.9,1.99-9.34,5.2-12.56,3.22-3.21,7.68-5.2,12.58-5.2h51.12v-51.13c0-9.82,7.96-17.78,17.77-17.78,4.9,0,9.35,1.99,12.58,5.2,3.2,3.22,5.2,7.66,5.2,12.58v51.13h51.12c4.39,0,8.41,1.59,11.51,4.23,3.84,3.25,6.27,8.11,6.27,13.53,0,9.82-7.96,17.78-17.78,17.78Z"/>
</svg>