<?xml version="1.0" encoding="UTF-8"?>
<svg id="Palette" xmlns="http://www.w3.org/2000/svg" viewBox="0 0 828.9 207.46">
  <defs>
    <style>
      .cls-1 {
        fill: #41ead4;
      }

      .cls-2 {
        fill: #fcfafa;
      }

      .cls-3 {
        fill: #fcd34d;
      }
    </style>
  </defs>
  <g>
    <g>
      <path class="cls-3" d="M193.23,193.55V26.76h42.11v166.79h-42.11Z"/>
      <path class="cls-3" d="M311.32,196.37c-13.96,0-26.04-2.16-36.23-6.47-10.2-4.31-19.53-11.02-27.99-20.11l26.82-26.82c5.65,5.96,11.76,10.59,18.35,13.88,6.59,3.29,14.03,4.94,22.35,4.94,7.06,0,12.5-1.21,16.35-3.65,3.84-2.43,5.76-5.76,5.76-10s-1.45-7.37-4.35-9.88c-2.9-2.51-6.63-4.7-11.17-6.59-4.55-1.88-9.65-3.76-15.29-5.65-5.65-1.88-11.22-4.08-16.7-6.59-5.49-2.51-10.55-5.68-15.17-9.53-4.63-3.84-8.35-8.55-11.17-14.11-2.82-5.56-4.23-12.59-4.23-21.05,0-10.5,2.55-19.6,7.65-27.29,5.1-7.68,12.19-13.53,21.29-17.53,9.09-4,19.68-6,31.76-6s23.25,2.04,33.52,6.12c10.27,4.08,18.62,9.73,25.05,16.94l-26.82,26.82c-5.02-5.17-10.08-9.02-15.17-11.53-5.1-2.51-10.78-3.76-17.05-3.76-5.8,0-10.35,1.02-13.64,3.06-3.29,2.04-4.94,4.94-4.94,8.7s1.41,6.79,4.23,9.06c2.82,2.28,6.55,4.35,11.17,6.23,4.62,1.88,9.72,3.76,15.29,5.65,5.57,1.88,11.09,4.08,16.58,6.59,5.49,2.51,10.55,5.73,15.17,9.64,4.62,3.92,8.35,8.86,11.17,14.82,2.82,5.96,4.23,13.17,4.23,21.64,0,16.47-5.88,29.33-17.64,38.58-11.76,9.25-28.15,13.88-49.16,13.88Z"/>
      <polygon class="cls-3" points="541.39 26.77 541.39 193.56 499.28 193.56 499.28 126.04 439.29 126.04 439.29 193.56 397.18 193.56 397.18 26.77 439.29 26.77 439.29 90.52 499.28 90.52 499.28 26.77 541.39 26.77"/>
      <polygon class="cls-3" points="682.53 157.33 682.53 193.56 568.67 193.56 568.67 26.77 610.78 26.77 610.78 157.33 682.53 157.33"/>
      <polygon class="cls-3" points="810.11 26.77 752 123.61 752 193.56 709.9 193.56 709.9 125.9 650.85 26.77 699.31 26.77 731.02 83.47 762.59 26.77 810.11 26.77"/>
    </g>
    <path class="cls-3" d="M173.7,109.86c.16-45.5-36.59-82.52-82.09-82.69l-60.93-.22-.59,164.78,60.93.22c40.95.15,75.03-29.61,81.56-68.72.73-4.35,1.11-8.81,1.13-13.36ZM141.57,76.45c-.23.41-93.05,97.44-94.86,99.4l83.86-107.93c2.36-3.04,6.74-3.58,9.77-1.22,3.04,2.35,3.59,6.73,1.23,9.76Z"/>
  </g>
  <g>
    <g>
      <path class="cls-2" d="M186.81,186.37V19.58h42.11v166.79h-42.11Z"/>
      <path class="cls-2" d="M304.91,189.19c-13.96,0-26.04-2.16-36.23-6.47-10.2-4.31-19.53-11.02-27.99-20.11l26.82-26.82c5.65,5.96,11.76,10.59,18.35,13.88,6.59,3.29,14.03,4.94,22.35,4.94,7.06,0,12.5-1.21,16.35-3.65,3.84-2.43,5.76-5.76,5.76-10s-1.45-7.37-4.35-9.88c-2.9-2.51-6.63-4.7-11.17-6.59-4.55-1.88-9.65-3.76-15.29-5.65-5.65-1.88-11.22-4.08-16.7-6.59-5.49-2.51-10.55-5.68-15.17-9.53-4.63-3.84-8.35-8.55-11.17-14.11-2.82-5.56-4.23-12.59-4.23-21.05,0-10.5,2.55-19.6,7.65-27.29,5.1-7.68,12.19-13.53,21.29-17.53,9.09-4,19.68-6,31.76-6s23.25,2.04,33.52,6.12c10.27,4.08,18.62,9.73,25.05,16.94l-26.82,26.82c-5.02-5.17-10.08-9.02-15.17-11.53-5.1-2.51-10.78-3.76-17.05-3.76-5.8,0-10.35,1.02-13.64,3.06-3.29,2.04-4.94,4.94-4.94,8.7s1.41,6.79,4.23,9.06c2.82,2.28,6.55,4.35,11.17,6.23,4.62,1.88,9.72,3.76,15.29,5.65,5.57,1.88,11.09,4.08,16.58,6.59,5.49,2.51,10.55,5.73,15.17,9.64,4.62,3.92,8.35,8.86,11.17,14.82,2.82,5.96,4.23,13.17,4.23,21.64,0,16.47-5.88,29.33-17.64,38.58-11.76,9.25-28.15,13.88-49.16,13.88Z"/>
      <polygon class="cls-2" points="534.97 19.59 534.97 186.37 492.86 186.37 492.86 118.86 432.88 118.86 432.88 186.37 390.77 186.37 390.77 19.59 432.88 19.59 432.88 83.34 492.86 83.34 492.86 19.59 534.97 19.59"/>
      <polygon class="cls-2" points="676.12 150.15 676.12 186.37 562.26 186.37 562.26 19.59 604.37 19.59 604.37 150.15 676.12 150.15"/>
      <polygon class="cls-2" points="803.69 19.59 745.59 116.43 745.59 186.37 703.48 186.37 703.48 118.72 644.44 19.59 692.9 19.59 724.61 76.28 756.18 19.59 803.69 19.59"/>
    </g>
    <path class="cls-2" d="M167.29,102.68c-.02,4.55-.41,9.02-1.13,13.37-6.53,39.12-40.61,68.87-81.56,68.72l-60.93-.22.59-164.78,60.93.22c45.51.17,82.26,37.19,82.1,82.69Z"/>
  </g>
  <g>
    <g>
      <path class="cls-1" d="M181.94,180.69V13.91h42.11v166.79h-42.11Z"/>
      <path class="cls-1" d="M300.03,183.51c-13.96,0-26.04-2.16-36.23-6.47-10.2-4.31-19.53-11.02-27.99-20.11l26.82-26.82c5.65,5.96,11.76,10.59,18.35,13.88,6.59,3.29,14.03,4.94,22.35,4.94,7.06,0,12.5-1.21,16.35-3.65,3.84-2.43,5.76-5.76,5.76-10s-1.45-7.37-4.35-9.88c-2.9-2.51-6.63-4.7-11.17-6.59-4.55-1.88-9.65-3.76-15.29-5.65-5.65-1.88-11.22-4.08-16.7-6.59-5.49-2.51-10.55-5.68-15.17-9.53-4.63-3.84-8.35-8.55-11.17-14.11-2.82-5.56-4.23-12.59-4.23-21.05,0-10.5,2.55-19.6,7.65-27.29,5.1-7.68,12.19-13.53,21.29-17.53,9.09-4,19.68-6,31.76-6s23.25,2.04,33.52,6.12c10.27,4.08,18.62,9.73,25.05,16.94l-26.82,26.82c-5.02-5.17-10.08-9.02-15.17-11.53-5.1-2.51-10.78-3.76-17.05-3.76-5.8,0-10.35,1.02-13.64,3.06-3.29,2.04-4.94,4.94-4.94,8.7s1.41,6.79,4.23,9.06c2.82,2.28,6.55,4.35,11.17,6.23,4.62,1.88,9.72,3.76,15.29,5.65,5.57,1.88,11.09,4.08,16.58,6.59,5.49,2.51,10.55,5.73,15.17,9.64,4.62,3.92,8.35,8.86,11.17,14.82,2.82,5.96,4.23,13.17,4.23,21.64,0,16.47-5.88,29.33-17.64,38.58-11.76,9.25-28.15,13.88-49.16,13.88Z"/>
      <polygon class="cls-1" points="530.1 13.91 530.1 180.7 487.99 180.7 487.99 113.19 428 113.19 428 180.7 385.9 180.7 385.9 13.91 428 13.91 428 77.66 487.99 77.66 487.99 13.91 530.1 13.91"/>
      <polygon class="cls-1" points="671.24 144.47 671.24 180.7 557.39 180.7 557.39 13.91 599.49 13.91 599.49 144.47 671.24 144.47"/>
      <polygon class="cls-1" points="798.82 13.91 740.72 110.75 740.72 180.7 698.61 180.7 698.61 113.04 639.56 13.91 688.02 13.91 719.73 70.61 751.3 13.91 798.82 13.91"/>
    </g>
    <path class="cls-1" d="M162.42,97c.16-45.5-36.59-82.52-82.09-82.69l-60.93-.22-.59,164.78,60.93.22c40.95.15,75.03-29.61,81.56-68.72.73-4.35,1.11-8.81,1.13-13.36ZM130.28,63.59c-.23.41-93.05,97.44-94.86,99.4L119.28,55.06c2.36-3.04,6.74-3.58,9.77-1.22,3.04,2.35,3.59,6.73,1.23,9.76Z"/>
  </g>
</svg>